<svg xmlns="http://www.w3.org/2000/svg" viewBox="0 0 200 200" fill="none" stroke="#2C4A6E" stroke-width="5.5" stroke-linecap="round" stroke-linejoin="round">
  <!-- Nest / Bowl -->
  <path d="M40,140 C40,170 75,190 100,190 C125,190 160,170 160,140" />
  
  <!-- Bird Body -->
  <path d="M100,140 C100,140 95,120 90,110 C85,100 80,85 85,75 C90,65 100,60 105,65 C110,70 108,80 105,85" />
  
  <!-- Bird Head & Beak -->
  <path d="M105,65 C110,58 118,55 125,58 C130,60 132,65 128,70 C124,75 115,75 110,72" />
  
  <!-- Eye -->
  <circle cx="120" cy="62" r="3" fill="#2C4A6E" stroke="none" />
  
  <!-- Wing - Upper -->
  <path d="M85,75 C75,65 60,50 55,40 C50,30 55,25 65,30 C75,35 85,50 90,60" />
  
  <!-- Wing - Lower feather -->
  <path d="M80,80 C70,72 55,60 48,52 C42,45 45,40 52,42 C60,45 72,58 80,68" />
  
  <!-- Tail feathers -->
  <path d="M95,115 C85,108 70,95 62,85 C55,76 58,72 65,76 C72,80 82,95 88,105" />
</svg>
